<svg width="80" height="80" viewBox="0 0 80 80" fill="none" xmlns="http://www.w3.org/2000/svg">
<circle cx="40" cy="40" r="38" fill="white" stroke="#B3112C" stroke-width="4"/>
<path d="M55.5 23.75H25.5C23.4375 23.75 21.7687 25.4375 21.7687 27.5L21.75 61.25L29.25 53.75H55.5C57.5625 53.75 59.25 52.0625 59.25 50V27.5C59.25 25.4375 57.5625 23.75 55.5 23.75ZM55.5 50H27.6938L25.5 52.1938V27.5H55.5V50ZM29.25 42.5H33V46.25H29.25V42.5ZM29.25 36.875H33V40.625H29.25V36.875ZM29.25 31.25H33V35H29.25V31.25ZM36.75 42.5H46.125V46.25H36.75V42.5ZM36.75 36.875H51.75V40.625H36.75V36.875ZM36.75 31.25H51.75V35H36.75V31.25Z" fill="#B3112C"/>
</svg>
