<svg width="20" height="20" viewBox="0 0 20 20" fill="none" xmlns="http://www.w3.org/2000/svg">
<path d="M16.6667 1.6665H3.33341C2.41675 1.6665 1.67508 2.4165 1.67508 3.33317L1.66675 18.3332L5.00008 14.9998H16.6667C17.5834 14.9998 18.3334 14.2498 18.3334 13.3332V3.33317C18.3334 2.4165 17.5834 1.6665 16.6667 1.6665ZM16.6667 13.3332H4.30841L3.33341 14.3082V3.33317H16.6667V13.3332ZM5.00008 9.99984H6.66675V11.6665H5.00008V9.99984ZM5.00008 7.49984H6.66675V9.1665H5.00008V7.49984ZM5.00008 4.99984H6.66675V6.6665H5.00008V4.99984ZM8.33342 9.99984H12.5001V11.6665H8.33342V9.99984ZM8.33342 7.49984H15.0001V9.1665H8.33342V7.49984ZM8.33342 4.99984H15.0001V6.6665H8.33342V4.99984Z" fill="#B3112C"/>
</svg>
