<svg width="29" height="23" viewBox="0 0 29 23" fill="none" xmlns="http://www.w3.org/2000/svg">
<g clip-path="url(#clip0_4719_2185)">
<path fill-rule="evenodd" clip-rule="evenodd" d="M5.62837 13.0455L0.625357 21.9027C0.538096 22.0533 0.559911 22.2326 0.67626 22.3617C0.792609 22.4907 0.967133 22.5338 1.13438 22.4692L27.9019 11.9482C28.0619 11.8836 28.1565 11.7402 28.1565 11.5752C28.1565 11.4103 28.0546 11.2669 27.9019 11.2023L1.12711 0.681266C0.967133 0.61672 0.785337 0.65975 0.668988 0.788843C0.552639 0.917936 0.530824 1.09723 0.618086 1.24784L5.62837 10.105L18.3031 11.4318C18.3977 11.439 18.4704 11.5035 18.4704 11.5752C18.4704 11.647 18.3977 11.7115 18.3031 11.7187L5.62837 13.0455Z" fill="white"/>
</g>
<defs>
<clipPath id="clip0_4719_2185">
<rect width="29" height="23" fill="white"/>
</clipPath>
</defs>
</svg>
